<svg width="80" height="80" viewBox="0 0 80 80" fill="none" xmlns="http://www.w3.org/2000/svg">
<path d="M16.35 12.59H16.48L16.66 12.64L73.94 28.12H74.12C74.1854 28.1366 74.2467 28.1664 74.3001 28.2077C74.3534 28.249 74.3976 28.3009 74.43 28.36C74.4742 28.4863 74.4742 28.6238 74.43 28.75L64.14 67.05C64.1005 67.1818 64.0154 67.2952 63.9 67.37C63.8176 67.4052 63.7295 67.4255 63.64 67.43H63.51L5.88001 51.84C5.81628 51.8182 5.75575 51.7879 5.70001 51.75C5.64581 51.7076 5.59857 51.657 5.56001 51.6C5.52526 51.5387 5.50476 51.4704 5.50001 51.4C5.48513 51.3376 5.48513 51.2725 5.50001 51.21L15.86 13C15.8778 12.9347 15.9083 12.8735 15.95 12.82C15.9872 12.7639 16.0391 12.7189 16.1 12.69C16.1766 12.6471 16.2623 12.6231 16.35 12.62V12.59ZM16.35 10.82C15.9518 10.8162 15.5605 10.9236 15.22 11.13C14.9706 11.2804 14.7537 11.4791 14.582 11.7143C14.4103 11.9495 14.2872 12.2167 14.22 12.5L3.83001 50.76C3.75149 51.0457 3.73041 51.3441 3.76799 51.6379C3.80557 51.9318 3.90106 52.2152 4.04894 52.4719C4.19681 52.7286 4.39413 52.9534 4.62948 53.1333C4.86482 53.3132 5.13352 53.4447 5.42001 53.52L63.05 69.11C63.2437 69.1537 63.4415 69.1771 63.64 69.18C64.1308 69.1758 64.6074 69.0146 65 68.72C65.3961 68.4151 65.6835 67.9909 65.82 67.51L76.17 29.26C76.2492 28.9738 76.2696 28.6744 76.23 28.38C76.1932 28.0811 76.0981 27.7923 75.95 27.53C75.803 27.2703 75.6018 27.0452 75.36 26.87C75.1289 26.6829 74.8591 26.5497 74.57 26.48L74.39 26.42L17.12 11H16.94C16.7476 10.9483 16.5493 10.9214 16.35 10.92V10.82Z" fill="white"/>
<path d="M74 28.65L16.36 13.08L6 51.34L63.65 66.9L74 28.65Z" fill="#F2F2F2"/>
<path d="M63.65 67.7799C63.577 67.7897 63.503 67.7897 63.43 67.7799L5.79001 52.1799C5.56715 52.1166 5.37732 51.9697 5.26001 51.7699C5.14909 51.5685 5.12042 51.332 5.18001 51.1099L15.51 12.8499C15.5389 12.7384 15.5901 12.6339 15.6606 12.5428C15.7311 12.4517 15.8193 12.3759 15.92 12.3199C16.02 12.261 16.1308 12.2227 16.2459 12.2072C16.361 12.1918 16.478 12.1995 16.59 12.2299L74.22 27.8099C74.4433 27.8709 74.6336 28.0174 74.7496 28.2177C74.8657 28.418 74.8982 28.6559 74.84 28.8799L64.5 67.1299C64.448 67.3158 64.3369 67.4797 64.1836 67.597C64.0303 67.7142 63.843 67.7784 63.65 67.7799ZM7.09001 50.7199L63 65.8299L72.88 29.2699L17 14.1499L7.09001 50.7199Z" fill="#222222"/>
<path d="M6.23 51.23L63.51 66.71L43.59 38.59C42.9473 37.649 41.9901 36.968 40.8904 36.6693C39.7907 36.3705 38.6205 36.4736 37.59 36.96L6.23 51.23Z" fill="#F2F2F2"/>
<path d="M63.51 67.58C63.4336 67.5897 63.3564 67.5897 63.28 67.58L6 52.07C5.82463 52.0247 5.66776 51.9258 5.55127 51.7872C5.43478 51.6485 5.36448 51.4769 5.35016 51.2963C5.33585 51.1158 5.37825 50.9353 5.47143 50.78C5.56462 50.6247 5.70395 50.5023 5.87 50.43L37.23 36.16C38.4467 35.593 39.8251 35.476 41.12 35.83C42.4135 36.1843 43.5422 36.9803 44.31 38.08L64.22 66.2C64.3228 66.3464 64.378 66.521 64.378 66.7C64.378 66.8789 64.3228 67.0535 64.22 67.2C64.1393 67.3141 64.0331 67.4079 63.9099 67.4738C63.7866 67.5398 63.6497 67.5761 63.51 67.58ZM8.8 51L61.39 65.23L42.88 39.09C42.346 38.3235 41.5606 37.768 40.66 37.52C39.7612 37.2741 38.8043 37.3556 37.96 37.75L8.8 51Z" fill="#222222"/>
<path d="M16.53 13.14L73.8 28.59L42.45 42.85C41.4184 43.3303 40.2502 43.4301 39.152 43.1318C38.0539 42.8334 37.0968 42.1562 36.45 41.22L16.53 13.14Z" fill="white"/>
<path d="M40.42 44.17C39.9135 44.1681 39.4093 44.1008 38.92 43.97C37.6239 43.6154 36.4943 42.8152 35.73 41.71L15.82 13.64C15.7132 13.4937 15.6547 13.3178 15.6527 13.1367C15.6507 12.9556 15.7052 12.7784 15.8087 12.6298C15.9122 12.4812 16.0594 12.3686 16.23 12.3077C16.4005 12.2467 16.5858 12.2406 16.76 12.29L74 27.74C74.1716 27.7893 74.3244 27.8891 74.4385 28.0264C74.5527 28.1637 74.6229 28.3322 74.64 28.51C74.6559 28.69 74.6153 28.8705 74.5239 29.0264C74.4325 29.1823 74.2948 29.3059 74.13 29.38L42.81 43.64C42.0615 43.9889 41.2458 44.1698 40.42 44.17ZM18.65 14.61L37.16 40.71C37.694 41.4765 38.4794 42.0319 39.38 42.28C40.2788 42.5258 41.2357 42.4443 42.08 42.05L71.22 28.8L18.65 14.61Z" fill="#222222"/>
<path d="M38.62 34.59C38.1428 34.6217 37.6784 34.7582 37.26 34.99C36.8545 35.2424 36.5124 35.5846 36.26 35.99C35.79 35.28 35.17 34.34 34.11 34.26C33.7832 34.2448 33.4568 34.2971 33.1511 34.4137C32.8454 34.5302 32.5671 34.7086 32.3334 34.9376C32.0998 35.1665 31.9158 35.4412 31.7931 35.7445C31.6703 36.0477 31.6114 36.373 31.62 36.7C31.4 39.32 34.18 42.03 35.62 43.38C37.3 42.29 40.49 39.9 40.69 37.44C40.759 37.1103 40.759 36.7698 40.69 36.44C40.6187 36.124 40.4862 35.8251 40.3 35.56C40.1076 35.2958 39.8624 35.0745 39.58 34.91C39.2856 34.738 38.9587 34.629 38.62 34.59Z" fill="#E1513E"/>
<path d="M35.57 44.21C35.3608 44.2117 35.1581 44.137 35 44C33.65 42.74 30.5 39.78 30.72 36.67C30.7082 36.2376 30.7901 35.8078 30.96 35.41C31.1243 34.9937 31.3728 34.6158 31.69 34.3C32.0107 33.9866 32.3918 33.7417 32.81 33.58C33.2317 33.4102 33.6865 33.3383 34.14 33.37C34.5693 33.4202 34.9842 33.5557 35.3603 33.7687C35.7364 33.9817 36.0661 34.2677 36.33 34.61C36.493 34.4786 36.6669 34.3615 36.85 34.26C37.3841 33.9594 37.9785 33.7818 38.59 33.74H38.76C39.1982 33.7916 39.6206 33.9347 40 34.16C40.3962 34.3861 40.7377 34.6968 41 35.07C41.263 35.426 41.444 35.8358 41.53 36.27C41.6149 36.6925 41.6149 37.1276 41.53 37.55C41.26 40.33 38 42.84 36.07 44.09C35.9166 44.1729 35.7443 44.2143 35.57 44.21ZM33.91 35.08C33.7421 35.0843 33.5762 35.1182 33.42 35.18C33.2219 35.2559 33.0415 35.3716 32.89 35.52C32.7421 35.6642 32.6262 35.838 32.55 36.03C32.4742 36.2208 32.4368 36.4247 32.44 36.63V36.74C32.27 38.74 34.44 41 35.66 42.22C38.13 40.51 39.66 38.71 39.77 37.33C39.7651 37.2969 39.7651 37.2632 39.77 37.23C39.8099 37.0253 39.8099 36.8148 39.77 36.61C39.7299 36.4148 39.6481 36.2306 39.53 36.07C39.41 35.8947 39.253 35.7479 39.07 35.64C38.9165 35.5583 38.7512 35.501 38.58 35.47C38.2614 35.5035 37.9523 35.5986 37.67 35.75C37.3721 35.9261 37.1161 36.1649 36.92 36.45C36.7346 36.6644 36.4725 36.7972 36.19 36.82C36.0472 36.8191 35.9068 36.783 35.7813 36.715C35.6557 36.647 35.5488 36.5491 35.47 36.43C34.99 35.7 34.57 35.14 33.97 35.09L33.91 35.08Z" fill="#222222"/>
<path d="M46.28 39.34C45.7629 39.2212 45.226 39.2179 44.7075 39.3303C44.1889 39.4426 43.7016 39.6679 43.28 39.99C43.1303 39.4848 42.8745 39.0173 42.5296 38.6189C42.1847 38.2205 41.7586 37.9004 41.28 37.68C40.9615 37.5573 40.6208 37.5028 40.28 37.52C39.9315 37.5317 39.59 37.6205 39.28 37.78C38.9605 37.9401 38.6805 38.1689 38.46 38.45C38.239 38.7268 38.0789 39.0471 37.99 39.39C37.16 41.9 39.31 46.45 40.66 48.2C42.79 47.6 47.27 45.02 48.04 42.67C48.1648 42.3521 48.2193 42.011 48.2 41.67C48.1826 41.3212 48.0905 40.9802 47.93 40.67C47.776 40.3495 47.5525 40.0674 47.2757 39.8442C46.9989 39.6211 46.6758 39.4625 46.33 39.38L46.28 39.34Z" fill="#F27F70"/>
<path d="M40.61 49.07C40.4764 49.0716 40.3442 49.0416 40.2243 48.9825C40.1045 48.9235 40.0002 48.837 39.92 48.73C38.5 46.9 36.15 42 37.11 39.11C37.2293 38.6696 37.4368 38.2579 37.72 37.9C38.024 37.5267 38.4019 37.2203 38.83 37C39.2613 36.7795 39.7359 36.6565 40.22 36.64C40.6913 36.6143 41.1625 36.6928 41.6 36.87C42.2036 37.1306 42.7455 37.5156 43.19 38C43.3776 38.2177 43.545 38.452 43.69 38.7C43.956 38.5891 44.2301 38.4989 44.51 38.43C45.1688 38.2856 45.8512 38.2856 46.51 38.43C46.9694 38.5498 47.3986 38.7644 47.77 39.06C48.141 39.3664 48.447 39.7438 48.67 40.17C48.8967 40.6035 49.0267 41.081 49.0509 41.5696C49.075 42.0583 48.9929 42.5463 48.81 43C47.92 45.7 43.08 48.42 40.81 49C40.746 49.0304 40.679 49.0538 40.61 49.07ZM40.38 38.39H40.29C40.0577 38.4026 39.8302 38.4604 39.62 38.56C39.4215 38.6623 39.2457 38.8036 39.1031 38.9754C38.9605 39.1473 38.854 39.3461 38.79 39.56C38.17 41.43 39.59 45.08 40.95 47.11C43.07 46.32 46.57 44.11 47.16 42.35C47.2514 42.1215 47.2923 41.8759 47.28 41.63C47.2682 41.4092 47.2066 41.1938 47.1 41C46.9946 40.7872 46.8445 40.5996 46.66 40.45C46.4845 40.313 46.2841 40.2111 46.07 40.15C45.6807 40.07 45.2793 40.07 44.89 40.15C44.4978 40.2359 44.1292 40.4065 43.81 40.65C43.6974 40.7391 43.5638 40.7979 43.4219 40.8206C43.2801 40.8434 43.1349 40.8294 43 40.78C42.8672 40.735 42.7471 40.6588 42.6497 40.5579C42.5523 40.457 42.4804 40.3343 42.44 40.2C42.3232 39.83 42.1289 39.4891 41.87 39.2C41.6079 38.898 41.2839 38.6559 40.92 38.49C40.7473 38.4252 40.5645 38.3914 40.38 38.39Z" fill="#222222"/>
</svg>
